<svg width="24" height="24" fill="none" xmlns="http://www.w3.org/2000/svg"><path d="M3.483 16.029c0 4.096 3.338 6.967 8.017 6.967 5.336 0 8.984-3.486 8.984-9.138 0-8.862-7.747-12.587-13.325-12.587-.894 0-1.389.443-1.389 1.036 0 .411.221.753.552 1.192.776 1.104 2.22 2.754 2.22 4.878 0 .171-.01.342-.024.521-.562-1.056-1.555-1.796-2.773-1.796-.341 0-.512.201-.512.476 0 .351.08.623.08 1.664 0 2.103-1.83 3.493-1.83 7.787zm8.235 4.134c-2.01 0-3.315-1.216-3.315-3.023 0-1.897 1.35-2.528 1.542-3.798.01-.1.058-.128.132-.057.502.432.823.917 1.096 1.481.05.11.134.118.188-.001.553-.958.627-2.428.493-4.195-.017-.1.059-.146.157-.12 2.378 1.085 3.594 3.43 3.594 5.555 0 2.135-1.258 4.158-3.887 4.158z" fill="#000"/></svg>